<?xml version="1.0" encoding="UTF-8" standalone="no"?>
<!-- Created with Inkscape (http://www.inkscape.org/) -->

<svg
   xmlns:dc="http://purl.org/dc/elements/1.1/"
   xmlns:cc="http://creativecommons.org/ns#"
   xmlns:rdf="http://www.w3.org/1999/02/22-rdf-syntax-ns#"
   xmlns:svg="http://www.w3.org/2000/svg"
   xmlns="http://www.w3.org/2000/svg"
   xmlns:sodipodi="http://sodipodi.sourceforge.net/DTD/sodipodi-0.dtd"
   xmlns:inkscape="http://www.inkscape.org/namespaces/inkscape"
   version="1.1"
   width="385.64352"
   height="387.97003"
   id="svg2"
   inkscape:version="0.91 r13725"
   sodipodi:docname="Menschenaergern.svg">
  <metadata
     id="metadata93">
    <rdf:RDF>
      <cc:Work
         rdf:about="">
        <dc:format>image/svg+xml</dc:format>
        <dc:type
           rdf:resource="http://purl.org/dc/dcmitype/StillImage" />
      </cc:Work>
    </rdf:RDF>
  </metadata>
  <sodipodi:namedview
     pagecolor="#ffffff"
     bordercolor="#666666"
     borderopacity="1"
     objecttolerance="10"
     gridtolerance="10"
     guidetolerance="10"
     inkscape:pageopacity="0"
     inkscape:pageshadow="2"
     inkscape:window-width="1211"
     inkscape:window-height="815"
     id="namedview91"
     showgrid="false"
     inkscape:zoom="1.7205164"
     inkscape:cx="193.9842"
     inkscape:cy="203.615"
     inkscape:window-x="0"
     inkscape:window-y="0"
     inkscape:window-maximized="0"
     inkscape:current-layer="svg2" />
  <defs
     id="defs4">
    <marker
       refX="0"
       refY="0"
       orient="auto"
       id="Arrow1Lend"
       style="overflow:visible">
      <path
         d="M 0,0 5,-5 -12.5,0 5,5 0,0 z"
         transform="matrix(-0.8,0,0,-0.8,-10,0)"
         id="path4568"
         style="fill-rule:evenodd;stroke:#000000;stroke-width:1pt;marker-start:none" />
    </marker>
    <marker
       refX="0"
       refY="0"
       orient="auto"
       id="Arrow1Lend-0"
       style="overflow:visible">
      <path
         d="M 0,0 5,-5 -12.5,0 5,5 0,0 z"
         transform="matrix(-0.8,0,0,-0.8,-10,0)"
         id="path4568-4"
         style="fill-rule:evenodd;stroke:#000000;stroke-width:1pt;marker-start:none" />
    </marker>
    <marker
       refX="0"
       refY="0"
       orient="auto"
       id="Arrow1Lend-6"
       style="overflow:visible">
      <path
         d="M 0,0 5,-5 -12.5,0 5,5 0,0 z"
         transform="matrix(-0.8,0,0,-0.8,-10,0)"
         id="path4568-7"
         style="fill-rule:evenodd;stroke:#000000;stroke-width:1pt;marker-start:none" />
    </marker>
    <marker
       refX="0"
       refY="0"
       orient="auto"
       id="Arrow1Lend-9"
       style="overflow:visible">
      <path
         d="M 0,0 5,-5 -12.5,0 5,5 0,0 z"
         transform="matrix(-0.8,0,0,-0.8,-10,0)"
         id="path4568-8"
         style="fill-rule:evenodd;stroke:#000000;stroke-width:1pt;marker-start:none" />
    </marker>
  </defs>
  <rect
     width="383.87115"
     height="386.19766"
     x="0.88617933"
     y="0.88617933"
     id="rect4368"
     style="color:#000000;fill:#d1b689;fill-opacity:1;fill-rule:nonzero;stroke:#000000;stroke-width:1.77235866;stroke-linecap:butt;stroke-linejoin:miter;stroke-miterlimit:4;stroke-opacity:1;stroke-dasharray:none;stroke-dashoffset:0;marker:none;visibility:visible;display:inline;overflow:visible;enable-background:accumulate"
     inkscape:export-filename="/Users/tim/Desktop/mensch-aergere-dich-nicht.png"
     inkscape:export-xdpi="288.991"
     inkscape:export-ydpi="288.991" />
  <g
     transform="translate(-164.73873,-311.69539)"
     id="layer1">
    <path
       d="m 323.24881,336.24525 64.64977,0 0,132.11693 130.30968,0 0,71.85266 -130.30968,0 0,135.36044 -64.64977,0 0,-135.36044 -133.34013,0 0,-71.85266 133.34013,0 0,-132.11693 64.64977,0 0,132.11693 130.30968,0 0,71.85266 -130.30968,0"
       id="path2882"
       style="fill:none;stroke:#000000;stroke-width:2;stroke-linecap:butt;stroke-linejoin:miter;stroke-miterlimit:4;stroke-opacity:1;stroke-dasharray:none" />
  </g>
  <path
     d="m 210.11173,354.34677 a 10.101524,10.101524 0 1 1 -20.20305,0 10.101524,10.101524 0 1 1 20.20305,0 z"
     transform="matrix(1.2274853,0,0,1.2274853,-221.16443,-241.63146)"
     id="path3707-1-3-1"
     style="color:#000000;fill:#ffffff;fill-opacity:1;fill-rule:nonzero;stroke:#000000;stroke-width:1.22201061;stroke-linecap:butt;stroke-linejoin:miter;stroke-miterlimit:4;stroke-opacity:1;stroke-dasharray:none;stroke-dashoffset:0;marker:none;visibility:visible;display:inline;overflow:visible;enable-background:accumulate" />
  <path
     d="m 210.11173,354.34677 a 10.101524,10.101524 0 1 1 -20.20305,0 10.101524,10.101524 0 1 1 20.20305,0 z"
     transform="matrix(1.2274853,0,0,1.2274853,-88.961445,-142.271)"
     id="path3707-7"
     style="color:#000000;fill:#ffffff;fill-opacity:1;fill-rule:nonzero;stroke:#000000;stroke-width:1.22201061;stroke-linecap:butt;stroke-linejoin:miter;stroke-miterlimit:4;stroke-opacity:1;stroke-dasharray:none;stroke-dashoffset:0;marker:none;visibility:visible;display:inline;overflow:visible;enable-background:accumulate" />
  <path
     d="m 210.11173,354.34677 a 10.101524,10.101524 0 1 1 -20.20305,0 10.101524,10.101524 0 1 1 20.20305,0 z"
     transform="matrix(1.2274853,0,0,1.2274853,-88.961445,-108.271)"
     id="path3707-1-5"
     style="color:#000000;fill:#ffffff;fill-opacity:1;fill-rule:nonzero;stroke:#000000;stroke-width:1.22201061;stroke-linecap:butt;stroke-linejoin:miter;stroke-miterlimit:4;stroke-opacity:1;stroke-dasharray:none;stroke-dashoffset:0;marker:none;visibility:visible;display:inline;overflow:visible;enable-background:accumulate" />
  <path
     d="m 210.11173,354.34677 a 10.101524,10.101524 0 1 1 -20.20305,0 10.101524,10.101524 0 1 1 20.20305,0 z"
     transform="matrix(1.2274853,0,0,1.2274853,-88.961445,-176.271)"
     id="path3707-4-9"
     style="color:#000000;fill:#ffffff;fill-opacity:1;fill-rule:nonzero;stroke:#000000;stroke-width:1.22201061;stroke-linecap:butt;stroke-linejoin:miter;stroke-miterlimit:4;stroke-opacity:1;stroke-dasharray:none;stroke-dashoffset:0;marker:none;visibility:visible;display:inline;overflow:visible;enable-background:accumulate" />
  <path
     d="m 210.11173,354.34677 a 10.101524,10.101524 0 1 1 -20.20305,0 10.101524,10.101524 0 1 1 20.20305,0 z"
     transform="matrix(1.2274853,0,0,1.2274853,-88.961445,-208.271)"
     id="path3707-4-4-6"
     style="color:#000000;fill:#ffffff;fill-opacity:1;fill-rule:nonzero;stroke:#000000;stroke-width:1.22201061;stroke-linecap:butt;stroke-linejoin:miter;stroke-miterlimit:4;stroke-opacity:1;stroke-dasharray:none;stroke-dashoffset:0;marker:none;visibility:visible;display:inline;overflow:visible;enable-background:accumulate" />
  <path
     d="m 210.11173,354.34677 a 10.101524,10.101524 0 1 1 -20.20305,0 10.101524,10.101524 0 1 1 20.20305,0 z"
     transform="matrix(1.2274853,0,0,1.2274853,-128.53759,-210.29131)"
     id="path3707-4-4-4-2"
     style="color:#000000;fill:#ffffff;fill-opacity:1;fill-rule:nonzero;stroke:#000000;stroke-width:1.22201061;stroke-linecap:butt;stroke-linejoin:miter;stroke-miterlimit:4;stroke-opacity:1;stroke-dasharray:none;stroke-dashoffset:0;marker:none;visibility:visible;display:inline;overflow:visible;enable-background:accumulate" />
  <path
     d="m 210.11173,354.34677 a 10.101524,10.101524 0 1 1 -20.20305,0 10.101524,10.101524 0 1 1 20.20305,0 z"
     transform="matrix(1.2274853,0,0,1.2274853,-160.53759,-210.29131)"
     id="path3707-4-4-4-7-1"
     style="color:#000000;fill:#ffffff;fill-opacity:1;fill-rule:nonzero;stroke:#000000;stroke-width:1.22201061;stroke-linecap:butt;stroke-linejoin:miter;stroke-miterlimit:4;stroke-opacity:1;stroke-dasharray:none;stroke-dashoffset:0;marker:none;visibility:visible;display:inline;overflow:visible;enable-background:accumulate" />
  <path
     d="m 210.11173,354.34677 a 10.101524,10.101524 0 1 1 -20.20305,0 10.101524,10.101524 0 1 1 20.20305,0 z"
     transform="matrix(1.2274853,0,0,1.2274853,-192.53759,-210.29131)"
     id="path3707-4-4-4-7-6-7"
     style="color:#000000;fill:#ffffff;fill-opacity:1;fill-rule:nonzero;stroke:#000000;stroke-width:1.22201061;stroke-linecap:butt;stroke-linejoin:miter;stroke-miterlimit:4;stroke-opacity:1;stroke-dasharray:none;stroke-dashoffset:0;marker:none;visibility:visible;display:inline;overflow:visible;enable-background:accumulate" />
  <path
     d="m 210.11173,354.34677 a 10.101524,10.101524 0 1 1 -20.20305,0 10.101524,10.101524 0 1 1 20.20305,0 z"
     transform="matrix(1.2274853,0,0,1.2274853,-221.52744,-210.29131)"
     id="path3947"
     style="color:#000000;fill:#ffffff;fill-opacity:1;fill-rule:nonzero;stroke:#000000;stroke-width:1.22201061;stroke-linecap:butt;stroke-linejoin:miter;stroke-miterlimit:4;stroke-opacity:1;stroke-dasharray:none;stroke-dashoffset:0;marker:none;visibility:visible;display:inline;overflow:visible;enable-background:accumulate" />
  <path
     d="m 210.11173,354.34677 a 10.101524,10.101524 0 1 1 -20.20305,0 10.101524,10.101524 0 1 1 20.20305,0 z"
     transform="matrix(1.2274853,0,0,1.2274853,-88.961445,-76.271004)"
     id="path3707-1-3-8"
     style="color:#000000;fill:#fffacd;fill-opacity:1;fill-rule:nonzero;stroke:#000000;stroke-width:1.22201061;stroke-linecap:butt;stroke-linejoin:miter;stroke-miterlimit:4;stroke-opacity:1;stroke-dasharray:none;stroke-dashoffset:0;marker:none;visibility:visible;display:inline;overflow:visible;enable-background:accumulate" />
  <path
     d="m 210.11173,354.34677 a 10.101524,10.101524 0 1 1 -20.20305,0 10.101524,10.101524 0 1 1 20.20305,0 z"
     transform="matrix(1.2274853,0,0,1.2274853,-53.466519,-75.260854)"
     id="path3707-1-3-1-5"
     style="color:#000000;fill:#ffffff;fill-opacity:1;fill-rule:nonzero;stroke:#000000;stroke-width:1.22201061;stroke-linecap:butt;stroke-linejoin:miter;stroke-miterlimit:4;stroke-opacity:1;stroke-dasharray:none;stroke-dashoffset:0;marker:none;visibility:visible;display:inline;overflow:visible;enable-background:accumulate" />
  <path
     d="m 210.11173,354.34677 a 10.101524,10.101524 0 1 1 -20.20305,0 10.101524,10.101524 0 1 1 20.20305,0 z"
     transform="matrix(-1.2274853,0,0,-1.2274853,535.31912,661.29472)"
     id="path3707-41"
     style="color:#000000;fill:#ffffff;fill-opacity:1;fill-rule:nonzero;stroke:#000000;stroke-width:1.22201061;stroke-linecap:butt;stroke-linejoin:miter;stroke-miterlimit:4;stroke-opacity:1;stroke-dasharray:none;stroke-dashoffset:0;marker:none;visibility:visible;display:inline;overflow:visible;enable-background:accumulate" />
  <path
     d="m 210.11173,354.34677 a 10.101524,10.101524 0 1 1 -20.20305,0 10.101524,10.101524 0 1 1 20.20305,0 z"
     transform="matrix(-1.2274853,0,0,-1.2274853,569.31912,661.29472)"
     id="path3707-1-8"
     style="color:#000000;fill:#ffffff;fill-opacity:1;fill-rule:nonzero;stroke:#000000;stroke-width:1.22201061;stroke-linecap:butt;stroke-linejoin:miter;stroke-miterlimit:4;stroke-opacity:1;stroke-dasharray:none;stroke-dashoffset:0;marker:none;visibility:visible;display:inline;overflow:visible;enable-background:accumulate" />
  <path
     d="m 210.11173,354.34677 a 10.101524,10.101524 0 1 1 -20.20305,0 10.101524,10.101524 0 1 1 20.20305,0 z"
     transform="matrix(-1.2274853,0,0,-1.2274853,501.31912,661.29472)"
     id="path3707-4-5"
     style="color:#000000;fill:#ffffff;fill-opacity:1;fill-rule:nonzero;stroke:#000000;stroke-width:1.22201061;stroke-linecap:butt;stroke-linejoin:miter;stroke-miterlimit:4;stroke-opacity:1;stroke-dasharray:none;stroke-dashoffset:0;marker:none;visibility:visible;display:inline;overflow:visible;enable-background:accumulate" />
  <path
     d="m 210.11173,354.34677 a 10.101524,10.101524 0 1 1 -20.20305,0 10.101524,10.101524 0 1 1 20.20305,0 z"
     transform="matrix(-1.2274853,0,0,-1.2274853,470.83434,662.28457)"
     id="path3707-4-4-9"
     style="color:#000000;fill:#ffffff;fill-opacity:1;fill-rule:nonzero;stroke:#000000;stroke-width:1.22201061;stroke-linecap:butt;stroke-linejoin:miter;stroke-miterlimit:4;stroke-opacity:1;stroke-dasharray:none;stroke-dashoffset:0;marker:none;visibility:visible;display:inline;overflow:visible;enable-background:accumulate" />
  <path
     d="m 210.11173,354.34677 a 10.101524,10.101524 0 1 1 -20.20305,0 10.101524,10.101524 0 1 1 20.20305,0 z"
     transform="matrix(-1.2274853,0,0,-1.2274853,470.83434,694.28451)"
     id="path3707-4-4-4-75"
     style="color:#000000;fill:#ffffff;fill-opacity:1;fill-rule:nonzero;stroke:#000000;stroke-width:1.22201061;stroke-linecap:butt;stroke-linejoin:miter;stroke-miterlimit:4;stroke-opacity:1;stroke-dasharray:none;stroke-dashoffset:0;marker:none;visibility:visible;display:inline;overflow:visible;enable-background:accumulate" />
  <path
     d="m 210.11173,354.34677 a 10.101524,10.101524 0 1 1 -20.20305,0 10.101524,10.101524 0 1 1 20.20305,0 z"
     transform="matrix(-1.2274853,0,0,-1.2274853,470.83434,726.28451)"
     id="path3707-4-4-4-7-3"
     style="color:#000000;fill:#ffffff;fill-opacity:1;fill-rule:nonzero;stroke:#000000;stroke-width:1.22201061;stroke-linecap:butt;stroke-linejoin:miter;stroke-miterlimit:4;stroke-opacity:1;stroke-dasharray:none;stroke-dashoffset:0;marker:none;visibility:visible;display:inline;overflow:visible;enable-background:accumulate" />
  <path
     d="m 210.11173,354.34677 a 10.101524,10.101524 0 1 1 -20.20305,0 10.101524,10.101524 0 1 1 20.20305,0 z"
     transform="matrix(-1.2274853,0,0,-1.2274853,470.83434,758.28451)"
     id="path3707-4-4-4-7-6-8"
     style="color:#000000;fill:#ffffff;fill-opacity:1;fill-rule:nonzero;stroke:#000000;stroke-width:1.22201061;stroke-linecap:butt;stroke-linejoin:miter;stroke-miterlimit:4;stroke-opacity:1;stroke-dasharray:none;stroke-dashoffset:0;marker:none;visibility:visible;display:inline;overflow:visible;enable-background:accumulate" />
  <path
     d="m 210.11173,354.34677 a 10.101524,10.101524 0 1 1 -20.20305,0 10.101524,10.101524 0 1 1 20.20305,0 z"
     transform="matrix(-1.2274853,0,0,-1.2274853,470.83434,795.35561)"
     id="path4009"
     style="color:#000000;fill:#ffffff;fill-opacity:1;fill-rule:nonzero;stroke:#000000;stroke-width:1.22201061;stroke-linecap:butt;stroke-linejoin:miter;stroke-miterlimit:4;stroke-opacity:1;stroke-dasharray:none;stroke-dashoffset:0;marker:none;visibility:visible;display:inline;overflow:visible;enable-background:accumulate" />
  <path
     d="m 210.11173,354.34677 a 10.101524,10.101524 0 1 1 -20.20305,0 10.101524,10.101524 0 1 1 20.20305,0 z"
     transform="matrix(-1.2274853,0,0,-1.2274853,601.31912,661.29472)"
     id="path3707-1-3-83"
     style="color:#000000;fill:#90ee90;fill-opacity:1;fill-rule:nonzero;stroke:#000000;stroke-width:1.22201061;stroke-linecap:butt;stroke-linejoin:miter;stroke-miterlimit:4;stroke-opacity:1;stroke-dasharray:none;stroke-dashoffset:0;marker:none;visibility:visible;display:inline;overflow:visible;enable-background:accumulate" />
  <path
     d="m 210.11173,354.34677 a 10.101524,10.101524 0 1 1 -20.20305,0 10.101524,10.101524 0 1 1 20.20305,0 z"
     transform="matrix(-1.2274853,0,0,-1.2274853,601.31912,627.25411)"
     id="path3707-1-3-1-1"
     style="color:#000000;fill:#ffffff;fill-opacity:1;fill-rule:nonzero;stroke:#000000;stroke-width:1.22201061;stroke-linecap:butt;stroke-linejoin:miter;stroke-miterlimit:4;stroke-opacity:1;stroke-dasharray:none;stroke-dashoffset:0;marker:none;visibility:visible;display:inline;overflow:visible;enable-background:accumulate" />
  <path
     d="m 210.11173,354.34677 a 10.101524,10.101524 0 1 1 -20.20305,0 10.101524,10.101524 0 1 1 20.20305,0 z"
     transform="matrix(1.2274853,0,0,1.2274853,-156.093,-242.70289)"
     id="path3707-8"
     style="color:#000000;fill:#ff0000;fill-opacity:1;fill-rule:nonzero;stroke:#000000;stroke-width:1.22201061;stroke-linecap:butt;stroke-linejoin:miter;stroke-miterlimit:4;stroke-opacity:1;stroke-dasharray:none;stroke-dashoffset:0;marker:none;visibility:visible;display:inline;overflow:visible;enable-background:accumulate" />
  <path
     d="m 210.11173,354.34677 a 10.101524,10.101524 0 1 1 -20.20305,0 10.101524,10.101524 0 1 1 20.20305,0 z"
     transform="matrix(1.2274853,0,0,1.2274853,-190.093,-242.70289)"
     id="path3707-1-88"
     style="color:#000000;fill:#ff0000;fill-opacity:1;fill-rule:nonzero;stroke:#000000;stroke-width:1.22201061;stroke-linecap:butt;stroke-linejoin:miter;stroke-miterlimit:4;stroke-opacity:1;stroke-dasharray:none;stroke-dashoffset:0;marker:none;visibility:visible;display:inline;overflow:visible;enable-background:accumulate" />
  <path
     d="m 210.11173,354.34677 a 10.101524,10.101524 0 1 1 -20.20305,0 10.101524,10.101524 0 1 1 20.20305,0 z"
     transform="matrix(1.2274853,0,0,1.2274853,-122.093,-242.70289)"
     id="path3707-4-97"
     style="color:#000000;fill:#ff0000;fill-opacity:1;fill-rule:nonzero;stroke:#000000;stroke-width:1.22201061;stroke-linecap:butt;stroke-linejoin:miter;stroke-miterlimit:4;stroke-opacity:1;stroke-dasharray:none;stroke-dashoffset:0;marker:none;visibility:visible;display:inline;overflow:visible;enable-background:accumulate" />
  <path
     d="m 210.11173,354.34677 a 10.101524,10.101524 0 1 1 -20.20305,0 10.101524,10.101524 0 1 1 20.20305,0 z"
     transform="matrix(1.2274853,0,0,1.2274853,-90.092998,-242.70289)"
     id="path3707-4-4-7"
     style="color:#000000;fill:#ff0000;fill-opacity:1;fill-rule:nonzero;stroke:#000000;stroke-width:1.22201061;stroke-linecap:butt;stroke-linejoin:miter;stroke-miterlimit:4;stroke-opacity:1;stroke-dasharray:none;stroke-dashoffset:0;marker:none;visibility:visible;display:inline;overflow:visible;enable-background:accumulate" />
  <path
     d="m 210.11173,354.34677 a 10.101524,10.101524 0 1 1 -20.20305,0 10.101524,10.101524 0 1 1 20.20305,0 z"
     transform="matrix(1.2274853,0,0,1.2274853,13.049861,-243.41718)"
     id="path3707-8-6"
     style="color:#000000;fill:#00be00;fill-opacity:1;fill-rule:nonzero;stroke:#000000;stroke-width:1.22201061;stroke-linecap:butt;stroke-linejoin:miter;stroke-miterlimit:4;stroke-opacity:1;stroke-dasharray:none;stroke-dashoffset:0;marker:none;visibility:visible;display:inline;overflow:visible;enable-background:accumulate" />
  <path
     d="m 210.11173,354.34677 a 10.101524,10.101524 0 1 1 -20.20305,0 10.101524,10.101524 0 1 1 20.20305,0 z"
     transform="matrix(1.2274853,0,0,1.2274853,-20.950139,-243.41718)"
     id="path3707-1-88-4"
     style="color:#000000;fill:#00be00;fill-opacity:1;fill-rule:nonzero;stroke:#000000;stroke-width:1.22201061;stroke-linecap:butt;stroke-linejoin:miter;stroke-miterlimit:4;stroke-opacity:1;stroke-dasharray:none;stroke-dashoffset:0;marker:none;visibility:visible;display:inline;overflow:visible;enable-background:accumulate" />
  <path
     d="m 210.11173,354.34677 a 10.101524,10.101524 0 1 1 -20.20305,0 10.101524,10.101524 0 1 1 20.20305,0 z"
     transform="matrix(1.2274853,0,0,1.2274853,47.049861,-243.41718)"
     id="path3707-4-97-3"
     style="color:#000000;fill:#00be00;fill-opacity:1;fill-rule:nonzero;stroke:#000000;stroke-width:1.22201061;stroke-linecap:butt;stroke-linejoin:miter;stroke-miterlimit:4;stroke-opacity:1;stroke-dasharray:none;stroke-dashoffset:0;marker:none;visibility:visible;display:inline;overflow:visible;enable-background:accumulate" />
  <path
     d="m 210.11173,354.34677 a 10.101524,10.101524 0 1 1 -20.20305,0 10.101524,10.101524 0 1 1 20.20305,0 z"
     transform="matrix(1.2274853,0,0,1.2274853,79.049861,-243.41718)"
     id="path3707-4-4-7-0"
     style="color:#000000;fill:#00be00;fill-opacity:1;fill-rule:nonzero;stroke:#000000;stroke-width:1.22201061;stroke-linecap:butt;stroke-linejoin:miter;stroke-miterlimit:4;stroke-opacity:1;stroke-dasharray:none;stroke-dashoffset:0;marker:none;visibility:visible;display:inline;overflow:visible;enable-background:accumulate" />
  <path
     d="m 210.11173,354.34677 a 10.101524,10.101524 0 1 1 -20.20305,0 10.101524,10.101524 0 1 1 20.20305,0 z"
     transform="matrix(0,-1.2274853,1.2274853,0,-244.6509,538.83359)"
     id="path3707-8-6-3-5"
     style="color:#000000;fill:#ffff00;fill-opacity:1;fill-rule:nonzero;stroke:#000000;stroke-width:1.22201061;stroke-linecap:butt;stroke-linejoin:miter;stroke-miterlimit:4;stroke-opacity:1;stroke-dasharray:none;stroke-dashoffset:0;marker:none;visibility:visible;display:inline;overflow:visible;enable-background:accumulate" />
  <path
     d="m 210.11173,354.34677 a 10.101524,10.101524 0 1 1 -20.20305,0 10.101524,10.101524 0 1 1 20.20305,0 z"
     transform="matrix(0,-1.2274853,1.2274853,0,-244.6509,572.83359)"
     id="path3707-1-88-4-0-4"
     style="color:#000000;fill:#ffff00;fill-opacity:1;fill-rule:nonzero;stroke:#000000;stroke-width:1.22201061;stroke-linecap:butt;stroke-linejoin:miter;stroke-miterlimit:4;stroke-opacity:1;stroke-dasharray:none;stroke-dashoffset:0;marker:none;visibility:visible;display:inline;overflow:visible;enable-background:accumulate" />
  <path
     d="m 210.11173,354.34677 a 10.101524,10.101524 0 1 1 -20.20305,0 10.101524,10.101524 0 1 1 20.20305,0 z"
     transform="matrix(0,-1.2274853,1.2274853,0,-244.6509,504.83359)"
     id="path3707-4-97-3-9-0"
     style="color:#000000;fill:#ffff00;fill-opacity:1;fill-rule:nonzero;stroke:#000000;stroke-width:1.22201061;stroke-linecap:butt;stroke-linejoin:miter;stroke-miterlimit:4;stroke-opacity:1;stroke-dasharray:none;stroke-dashoffset:0;marker:none;visibility:visible;display:inline;overflow:visible;enable-background:accumulate" />
  <path
     d="m 210.11173,354.34677 a 10.101524,10.101524 0 1 1 -20.20305,0 10.101524,10.101524 0 1 1 20.20305,0 z"
     transform="matrix(0,-1.2274853,1.2274853,0,-244.6509,472.83359)"
     id="path3707-4-4-7-0-2-5"
     style="color:#000000;fill:#ffff00;fill-opacity:1;fill-rule:nonzero;stroke:#000000;stroke-width:1.22201061;stroke-linecap:butt;stroke-linejoin:miter;stroke-miterlimit:4;stroke-opacity:1;stroke-dasharray:none;stroke-dashoffset:0;marker:none;visibility:visible;display:inline;overflow:visible;enable-background:accumulate" />
  <path
     d="m 210.11173,354.34677 a 10.101524,10.101524 0 1 1 -20.20305,0 10.101524,10.101524 0 1 1 20.20305,0 z"
     transform="matrix(0,-1.2274853,1.2274853,0,-411.7855,607.22704)"
     id="path3707-4-97-3-9-0-9"
     style="color:#000000;fill:#ffff00;fill-opacity:1;fill-rule:nonzero;stroke:#000000;stroke-width:1.22201061;stroke-linecap:butt;stroke-linejoin:miter;stroke-miterlimit:4;stroke-opacity:1;stroke-dasharray:none;stroke-dashoffset:0;marker:none;visibility:visible;display:inline;overflow:visible;enable-background:accumulate" />
  <path
     d="m 210.11173,354.34677 a 10.101524,10.101524 0 1 1 -20.20305,0 10.101524,10.101524 0 1 1 20.20305,0 z"
     transform="matrix(0,-1.2274853,1.2274853,0,-412.29058,570.17628)"
     id="path3707-4-4-7-0-2-5-4"
     style="color:#000000;fill:#ffff00;fill-opacity:1;fill-rule:nonzero;stroke:#000000;stroke-width:1.22201061;stroke-linecap:butt;stroke-linejoin:miter;stroke-miterlimit:4;stroke-opacity:1;stroke-dasharray:none;stroke-dashoffset:0;marker:none;visibility:visible;display:inline;overflow:visible;enable-background:accumulate" />
  <path
     d="m 210.11173,354.34677 a 10.101524,10.101524 0 1 1 -20.20305,0 10.101524,10.101524 0 1 1 20.20305,0 z"
     transform="matrix(0,-1.2274853,1.2274853,0,-378.95554,606.72197)"
     id="path3707-4-97-3-9-0-92"
     style="color:#000000;fill:#ffff00;fill-opacity:1;fill-rule:nonzero;stroke:#000000;stroke-width:1.22201061;stroke-linecap:butt;stroke-linejoin:miter;stroke-miterlimit:4;stroke-opacity:1;stroke-dasharray:none;stroke-dashoffset:0;marker:none;visibility:visible;display:inline;overflow:visible;enable-background:accumulate" />
  <path
     d="m 210.11173,354.34677 a 10.101524,10.101524 0 1 1 -20.20305,0 10.101524,10.101524 0 1 1 20.20305,0 z"
     transform="matrix(0,-1.2274853,1.2274853,0,-378.45047,570.17628)"
     id="path3707-4-4-7-0-2-5-2"
     style="color:#000000;fill:#ffff00;fill-opacity:1;fill-rule:nonzero;stroke:#000000;stroke-width:1.22201061;stroke-linecap:butt;stroke-linejoin:miter;stroke-miterlimit:4;stroke-opacity:1;stroke-dasharray:none;stroke-dashoffset:0;marker:none;visibility:visible;display:inline;overflow:visible;enable-background:accumulate" />
  <path
     d="m 210.11173,354.34677 a 10.101524,10.101524 0 1 1 -20.20305,0 10.101524,10.101524 0 1 1 20.20305,0 z"
     transform="matrix(0,-1.2274853,1.2274853,0,-412.75504,301.71681)"
     id="path3707-4-97-3-9-0-9-4"
     style="color:#000000;fill:#ff0000;fill-opacity:1;fill-rule:nonzero;stroke:#000000;stroke-width:1.22201061;stroke-linecap:butt;stroke-linejoin:miter;stroke-miterlimit:4;stroke-opacity:1;stroke-dasharray:none;stroke-dashoffset:0;marker:none;visibility:visible;display:inline;overflow:visible;enable-background:accumulate" />
  <path
     d="m 210.11173,354.34677 a 10.101524,10.101524 0 1 1 -20.20305,0 10.101524,10.101524 0 1 1 20.20305,0 z"
     transform="matrix(0,-1.2274853,1.2274853,0,-412.75504,269.71681)"
     id="path3707-4-4-7-0-2-5-4-7"
     style="color:#000000;fill:#ff0000;fill-opacity:1;fill-rule:nonzero;stroke:#000000;stroke-width:1.22201061;stroke-linecap:butt;stroke-linejoin:miter;stroke-miterlimit:4;stroke-opacity:1;stroke-dasharray:none;stroke-dashoffset:0;marker:none;visibility:visible;display:inline;overflow:visible;enable-background:accumulate" />
  <path
     d="m 210.11173,354.34677 a 10.101524,10.101524 0 1 1 -20.20305,0 10.101524,10.101524 0 1 1 20.20305,0 z"
     transform="matrix(0,-1.2274853,1.2274853,0,-378.40986,300.70666)"
     id="path3707-4-97-3-9-0-92-7"
     style="color:#000000;fill:#ff0000;fill-opacity:1;fill-rule:nonzero;stroke:#000000;stroke-width:1.22201061;stroke-linecap:butt;stroke-linejoin:miter;stroke-miterlimit:4;stroke-opacity:1;stroke-dasharray:none;stroke-dashoffset:0;marker:none;visibility:visible;display:inline;overflow:visible;enable-background:accumulate" />
  <path
     d="m 210.11173,354.34677 a 10.101524,10.101524 0 1 1 -20.20305,0 10.101524,10.101524 0 1 1 20.20305,0 z"
     transform="matrix(0,-1.2274853,1.2274853,0,-378.40986,268.70666)"
     id="path3707-4-4-7-0-2-5-2-5"
     style="color:#000000;fill:#ff0000;fill-opacity:1;fill-rule:nonzero;stroke:#000000;stroke-width:1.22201061;stroke-linecap:butt;stroke-linejoin:miter;stroke-miterlimit:4;stroke-opacity:1;stroke-dasharray:none;stroke-dashoffset:0;marker:none;visibility:visible;display:inline;overflow:visible;enable-background:accumulate" />
  <path
     d="m 210.11173,354.34677 a 10.101524,10.101524 0 1 1 -20.20305,0 10.101524,10.101524 0 1 1 20.20305,0 z"
     transform="matrix(0,-1.2274853,1.2274853,0,-114.33619,299.77773)"
     id="path3707-4-97-3-9-0-9-8"
     style="color:#000000;fill:#0000ff;fill-opacity:1;fill-rule:nonzero;stroke:#000000;stroke-width:1.22201061;stroke-linecap:butt;stroke-linejoin:miter;stroke-miterlimit:4;stroke-opacity:1;stroke-dasharray:none;stroke-dashoffset:0;marker:none;visibility:visible;display:inline;overflow:visible;enable-background:accumulate" />
  <path
     d="m 210.11173,354.34677 a 10.101524,10.101524 0 1 1 -20.20305,0 10.101524,10.101524 0 1 1 20.20305,0 z"
     transform="matrix(0,-1.2274853,1.2274853,0,-114.33619,267.77773)"
     id="path3707-4-4-7-0-2-5-4-1"
     style="color:#000000;fill:#0000ff;fill-opacity:1;fill-rule:nonzero;stroke:#000000;stroke-width:1.22201061;stroke-linecap:butt;stroke-linejoin:miter;stroke-miterlimit:4;stroke-opacity:1;stroke-dasharray:none;stroke-dashoffset:0;marker:none;visibility:visible;display:inline;overflow:visible;enable-background:accumulate" />
  <path
     d="m 210.11173,354.34677 a 10.101524,10.101524 0 1 1 -20.20305,0 10.101524,10.101524 0 1 1 20.20305,0 z"
     transform="matrix(0,-1.2274853,1.2274853,0,-78.980853,299.77773)"
     id="path3707-4-97-3-9-0-92-2"
     style="color:#000000;fill:#0000ff;fill-opacity:1;fill-rule:nonzero;stroke:#000000;stroke-width:1.22201061;stroke-linecap:butt;stroke-linejoin:miter;stroke-miterlimit:4;stroke-opacity:1;stroke-dasharray:none;stroke-dashoffset:0;marker:none;visibility:visible;display:inline;overflow:visible;enable-background:accumulate" />
  <path
     d="m 210.11173,354.34677 a 10.101524,10.101524 0 1 1 -20.20305,0 10.101524,10.101524 0 1 1 20.20305,0 z"
     transform="matrix(0,-1.2274853,1.2274853,0,-78.980853,267.77773)"
     id="path3707-4-4-7-0-2-5-2-8"
     style="color:#000000;fill:#0000ff;fill-opacity:1;fill-rule:nonzero;stroke:#000000;stroke-width:1.22201061;stroke-linecap:butt;stroke-linejoin:miter;stroke-miterlimit:4;stroke-opacity:1;stroke-dasharray:none;stroke-dashoffset:0;marker:none;visibility:visible;display:inline;overflow:visible;enable-background:accumulate" />
  <path
     d="m 210.11173,354.34677 a 10.101524,10.101524 0 1 1 -20.20305,0 10.101524,10.101524 0 1 1 20.20305,0 z"
     transform="matrix(0,-1.2274853,1.2274853,0,-113.32603,606.72197)"
     id="path3707-4-97-3-9-0-9-3"
     style="color:#000000;fill:#00be00;fill-opacity:1;fill-rule:nonzero;stroke:#000000;stroke-width:1.22201061;stroke-linecap:butt;stroke-linejoin:miter;stroke-miterlimit:4;stroke-opacity:1;stroke-dasharray:none;stroke-dashoffset:0;marker:none;visibility:visible;display:inline;overflow:visible;enable-background:accumulate" />
  <path
     d="m 210.11173,354.34677 a 10.101524,10.101524 0 1 1 -20.20305,0 10.101524,10.101524 0 1 1 20.20305,0 z"
     transform="matrix(0,-1.2274853,1.2274853,0,-113.32603,572.19659)"
     id="path3707-4-4-7-0-2-5-4-6"
     style="color:#000000;fill:#00be00;fill-opacity:1;fill-rule:nonzero;stroke:#000000;stroke-width:1.22201061;stroke-linecap:butt;stroke-linejoin:miter;stroke-miterlimit:4;stroke-opacity:1;stroke-dasharray:none;stroke-dashoffset:0;marker:none;visibility:visible;display:inline;overflow:visible;enable-background:accumulate" />
  <path
     d="m 210.11173,354.34677 a 10.101524,10.101524 0 1 1 -20.20305,0 10.101524,10.101524 0 1 1 20.20305,0 z"
     transform="matrix(0,-1.2274853,1.2274853,0,-78.980853,608.2372)"
     id="path3707-4-97-3-9-0-92-8"
     style="color:#000000;fill:#00be00;fill-opacity:1;fill-rule:nonzero;stroke:#000000;stroke-width:1.22201061;stroke-linecap:butt;stroke-linejoin:miter;stroke-miterlimit:4;stroke-opacity:1;stroke-dasharray:none;stroke-dashoffset:0;marker:none;visibility:visible;display:inline;overflow:visible;enable-background:accumulate" />
  <path
     d="m 210.11173,354.34677 a 10.101524,10.101524 0 1 1 -20.20305,0 10.101524,10.101524 0 1 1 20.20305,0 z"
     transform="matrix(0,-1.2274853,1.2274853,0,-78.980853,571.18644)"
     id="path3707-4-4-7-0-2-5-2-0"
     style="color:#000000;fill:#00be00;fill-opacity:1;fill-rule:nonzero;stroke:#000000;stroke-width:1.22201061;stroke-linecap:butt;stroke-linejoin:miter;stroke-miterlimit:4;stroke-opacity:1;stroke-dasharray:none;stroke-dashoffset:0;marker:none;visibility:visible;display:inline;overflow:visible;enable-background:accumulate" />
  <path
     d="m 210.11173,354.34677 a 10.101524,10.101524 0 1 1 -20.20305,0 10.101524,10.101524 0 1 1 20.20305,0 z"
     transform="matrix(1.2274853,0,0,-1.2274853,-89.310302,523.46995)"
     id="path3707-7-2"
     style="color:#000000;fill:#ffffff;fill-opacity:1;fill-rule:nonzero;stroke:#000000;stroke-width:1.22201061;stroke-linecap:butt;stroke-linejoin:miter;stroke-miterlimit:4;stroke-opacity:1;stroke-dasharray:none;stroke-dashoffset:0;marker:none;visibility:visible;display:inline;overflow:visible;enable-background:accumulate" />
  <path
     d="m 210.11173,354.34677 a 10.101524,10.101524 0 1 1 -20.20305,0 10.101524,10.101524 0 1 1 20.20305,0 z"
     transform="matrix(1.2274853,0,0,-1.2274853,-89.310302,489.46995)"
     id="path3707-1-5-1"
     style="color:#000000;fill:#ffffff;fill-opacity:1;fill-rule:nonzero;stroke:#000000;stroke-width:1.22201061;stroke-linecap:butt;stroke-linejoin:miter;stroke-miterlimit:4;stroke-opacity:1;stroke-dasharray:none;stroke-dashoffset:0;marker:none;visibility:visible;display:inline;overflow:visible;enable-background:accumulate" />
  <path
     d="m 210.11173,354.34677 a 10.101524,10.101524 0 1 1 -20.20305,0 10.101524,10.101524 0 1 1 20.20305,0 z"
     transform="matrix(1.2274853,0,0,-1.2274853,-89.310302,557.46995)"
     id="path3707-4-9-0"
     style="color:#000000;fill:#ffffff;fill-opacity:1;fill-rule:nonzero;stroke:#000000;stroke-width:1.22201061;stroke-linecap:butt;stroke-linejoin:miter;stroke-miterlimit:4;stroke-opacity:1;stroke-dasharray:none;stroke-dashoffset:0;marker:none;visibility:visible;display:inline;overflow:visible;enable-background:accumulate" />
  <path
     d="m 210.11173,354.34677 a 10.101524,10.101524 0 1 1 -20.20305,0 10.101524,10.101524 0 1 1 20.20305,0 z"
     transform="matrix(1.2274853,0,0,-1.2274853,-89.310302,591.46995)"
     id="path3707-4-4-6-5"
     style="color:#000000;fill:#ffffff;fill-opacity:1;fill-rule:nonzero;stroke:#000000;stroke-width:1.22201061;stroke-linecap:butt;stroke-linejoin:miter;stroke-miterlimit:4;stroke-opacity:1;stroke-dasharray:none;stroke-dashoffset:0;marker:none;visibility:visible;display:inline;overflow:visible;enable-background:accumulate" />
  <path
     d="m 210.11173,354.34677 a 10.101524,10.101524 0 1 1 -20.20305,0 10.101524,10.101524 0 1 1 20.20305,0 z"
     transform="matrix(1.2274853,0,0,-1.2274853,-128.88645,593.49026)"
     id="path3707-4-4-4-2-1"
     style="color:#000000;fill:#ffffff;fill-opacity:1;fill-rule:nonzero;stroke:#000000;stroke-width:1.22201061;stroke-linecap:butt;stroke-linejoin:miter;stroke-miterlimit:4;stroke-opacity:1;stroke-dasharray:none;stroke-dashoffset:0;marker:none;visibility:visible;display:inline;overflow:visible;enable-background:accumulate" />
  <path
     d="m 210.11173,354.34677 a 10.101524,10.101524 0 1 1 -20.20305,0 10.101524,10.101524 0 1 1 20.20305,0 z"
     transform="matrix(1.2274853,0,0,-1.2274853,-160.88644,593.49026)"
     id="path3707-4-4-4-7-1-1"
     style="color:#000000;fill:#ffffff;fill-opacity:1;fill-rule:nonzero;stroke:#000000;stroke-width:1.22201061;stroke-linecap:butt;stroke-linejoin:miter;stroke-miterlimit:4;stroke-opacity:1;stroke-dasharray:none;stroke-dashoffset:0;marker:none;visibility:visible;display:inline;overflow:visible;enable-background:accumulate" />
  <path
     d="m 210.11173,354.34677 a 10.101524,10.101524 0 1 1 -20.20305,0 10.101524,10.101524 0 1 1 20.20305,0 z"
     transform="matrix(1.2274853,0,0,-1.2274853,-192.88645,593.49026)"
     id="path3707-4-4-4-7-6-7-0"
     style="color:#000000;fill:#ffffff;fill-opacity:1;fill-rule:nonzero;stroke:#000000;stroke-width:1.22201061;stroke-linecap:butt;stroke-linejoin:miter;stroke-miterlimit:4;stroke-opacity:1;stroke-dasharray:none;stroke-dashoffset:0;marker:none;visibility:visible;display:inline;overflow:visible;enable-background:accumulate" />
  <path
     d="m 210.11173,354.34677 a 10.101524,10.101524 0 1 1 -20.20305,0 10.101524,10.101524 0 1 1 20.20305,0 z"
     transform="matrix(1.2274853,0,0,-1.2274853,-221.8763,593.49026)"
     id="path3947-8"
     style="color:#000000;fill:#ffa07a;fill-opacity:1;fill-rule:nonzero;stroke:#000000;stroke-width:1.22201061;stroke-linecap:butt;stroke-linejoin:miter;stroke-miterlimit:4;stroke-opacity:1;stroke-dasharray:none;stroke-dashoffset:0;marker:none;visibility:visible;display:inline;overflow:visible;enable-background:accumulate" />
  <path
     d="m 210.11173,354.34677 a 10.101524,10.101524 0 1 1 -20.20305,0 10.101524,10.101524 0 1 1 20.20305,0 z"
     transform="matrix(1.2274853,0,0,-1.2274853,-89.310302,459.46995)"
     id="path3707-1-3-8-5"
     style="color:#000000;fill:#ffffff;fill-opacity:1;fill-rule:nonzero;stroke:#000000;stroke-width:1.22201061;stroke-linecap:butt;stroke-linejoin:miter;stroke-miterlimit:4;stroke-opacity:1;stroke-dasharray:none;stroke-dashoffset:0;marker:none;visibility:visible;display:inline;overflow:visible;enable-background:accumulate" />
  <path
     d="m 210.11173,354.34677 a 10.101524,10.101524 0 1 1 -20.20305,0 10.101524,10.101524 0 1 1 20.20305,0 z"
     transform="matrix(1.2274853,0,0,-1.2274853,-53.815369,458.4598)"
     id="path3707-1-3-1-5-0"
     style="color:#000000;fill:#ffffff;fill-opacity:1;fill-rule:nonzero;stroke:#000000;stroke-width:1.22201061;stroke-linecap:butt;stroke-linejoin:miter;stroke-miterlimit:4;stroke-opacity:1;stroke-dasharray:none;stroke-dashoffset:0;marker:none;visibility:visible;display:inline;overflow:visible;enable-background:accumulate" />
  <path
     d="m 210.11173,354.34677 a 10.101524,10.101524 0 1 1 -20.20305,0 10.101524,10.101524 0 1 1 20.20305,0 z"
     transform="matrix(-1.2274853,0,0,1.2274853,534.97027,-278.09577)"
     id="path3707-41-6"
     style="color:#000000;fill:#ffffff;fill-opacity:1;fill-rule:nonzero;stroke:#000000;stroke-width:1.22201061;stroke-linecap:butt;stroke-linejoin:miter;stroke-miterlimit:4;stroke-opacity:1;stroke-dasharray:none;stroke-dashoffset:0;marker:none;visibility:visible;display:inline;overflow:visible;enable-background:accumulate" />
  <path
     d="m 210.11173,354.34677 a 10.101524,10.101524 0 1 1 -20.20305,0 10.101524,10.101524 0 1 1 20.20305,0 z"
     transform="matrix(-1.2274853,0,0,1.2274853,568.97027,-278.09577)"
     id="path3707-1-8-4"
     style="color:#000000;fill:#ffffff;fill-opacity:1;fill-rule:nonzero;stroke:#000000;stroke-width:1.22201061;stroke-linecap:butt;stroke-linejoin:miter;stroke-miterlimit:4;stroke-opacity:1;stroke-dasharray:none;stroke-dashoffset:0;marker:none;visibility:visible;display:inline;overflow:visible;enable-background:accumulate" />
  <path
     d="m 210.11173,354.34677 a 10.101524,10.101524 0 1 1 -20.20305,0 10.101524,10.101524 0 1 1 20.20305,0 z"
     transform="matrix(-1.2274853,0,0,1.2274853,500.97027,-278.09577)"
     id="path3707-4-5-6"
     style="color:#000000;fill:#ffffff;fill-opacity:1;fill-rule:nonzero;stroke:#000000;stroke-width:1.22201061;stroke-linecap:butt;stroke-linejoin:miter;stroke-miterlimit:4;stroke-opacity:1;stroke-dasharray:none;stroke-dashoffset:0;marker:none;visibility:visible;display:inline;overflow:visible;enable-background:accumulate" />
  <path
     d="m 210.11173,354.34677 a 10.101524,10.101524 0 1 1 -20.20305,0 10.101524,10.101524 0 1 1 20.20305,0 z"
     transform="matrix(-1.2274853,0,0,1.2274853,470.48549,-279.08562)"
     id="path3707-4-4-9-2"
     style="color:#000000;fill:#ffffff;fill-opacity:1;fill-rule:nonzero;stroke:#000000;stroke-width:1.22201061;stroke-linecap:butt;stroke-linejoin:miter;stroke-miterlimit:4;stroke-opacity:1;stroke-dasharray:none;stroke-dashoffset:0;marker:none;visibility:visible;display:inline;overflow:visible;enable-background:accumulate" />
  <path
     d="m 210.11173,354.34677 a 10.101524,10.101524 0 1 1 -20.20305,0 10.101524,10.101524 0 1 1 20.20305,0 z"
     transform="matrix(-1.2274853,0,0,1.2274853,470.48549,-317.08556)"
     id="path3707-4-4-4-75-5"
     style="color:#000000;fill:#ffffff;fill-opacity:1;fill-rule:nonzero;stroke:#000000;stroke-width:1.22201061;stroke-linecap:butt;stroke-linejoin:miter;stroke-miterlimit:4;stroke-opacity:1;stroke-dasharray:none;stroke-dashoffset:0;marker:none;visibility:visible;display:inline;overflow:visible;enable-background:accumulate" />
  <path
     d="m 210.11173,354.34677 a 10.101524,10.101524 0 1 1 -20.20305,0 10.101524,10.101524 0 1 1 20.20305,0 z"
     transform="matrix(-1.2274853,0,0,1.2274853,470.48549,-349.08556)"
     id="path3707-4-4-4-7-3-8"
     style="color:#000000;fill:#ffffff;fill-opacity:1;fill-rule:nonzero;stroke:#000000;stroke-width:1.22201061;stroke-linecap:butt;stroke-linejoin:miter;stroke-miterlimit:4;stroke-opacity:1;stroke-dasharray:none;stroke-dashoffset:0;marker:none;visibility:visible;display:inline;overflow:visible;enable-background:accumulate" />
  <path
     d="m 210.11173,354.34677 a 10.101524,10.101524 0 1 1 -20.20305,0 10.101524,10.101524 0 1 1 20.20305,0 z"
     transform="matrix(-1.2274853,0,0,1.2274853,470.48549,-381.08556)"
     id="path3707-4-4-4-7-6-8-6"
     style="color:#000000;fill:#ffffff;fill-opacity:1;fill-rule:nonzero;stroke:#000000;stroke-width:1.22201061;stroke-linecap:butt;stroke-linejoin:miter;stroke-miterlimit:4;stroke-opacity:1;stroke-dasharray:none;stroke-dashoffset:0;marker:none;visibility:visible;display:inline;overflow:visible;enable-background:accumulate" />
  <path
     d="m 210.11173,354.34677 a 10.101524,10.101524 0 1 1 -20.20305,0 10.101524,10.101524 0 1 1 20.20305,0 z"
     transform="matrix(-1.2274853,0,0,1.2274853,470.48549,-412.15666)"
     id="path4009-2"
     style="color:#000000;fill:#6495ed;fill-opacity:1;fill-rule:nonzero;stroke:#000000;stroke-width:1.22201061;stroke-linecap:butt;stroke-linejoin:miter;stroke-miterlimit:4;stroke-opacity:1;stroke-dasharray:none;stroke-dashoffset:0;marker:none;visibility:visible;display:inline;overflow:visible;enable-background:accumulate" />
  <path
     d="m 210.11173,354.34677 a 10.101524,10.101524 0 1 1 -20.20305,0 10.101524,10.101524 0 1 1 20.20305,0 z"
     transform="matrix(-1.2274853,0,0,1.2274853,600.97027,-278.09577)"
     id="path3707-1-3-83-8"
     style="color:#000000;fill:#ffffff;fill-opacity:1;fill-rule:nonzero;stroke:#000000;stroke-width:1.22201061;stroke-linecap:butt;stroke-linejoin:miter;stroke-miterlimit:4;stroke-opacity:1;stroke-dasharray:none;stroke-dashoffset:0;marker:none;visibility:visible;display:inline;overflow:visible;enable-background:accumulate" />
  <path
     d="m 210.11173,354.34677 a 10.101524,10.101524 0 1 1 -20.20305,0 10.101524,10.101524 0 1 1 20.20305,0 z"
     transform="matrix(0,1.2274853,1.2274853,0,-244.99976,-155.63464)"
     id="path3707-8-6-3-5-4"
     style="color:#000000;fill:#0000ff;fill-opacity:1;fill-rule:nonzero;stroke:#000000;stroke-width:1.22201061;stroke-linecap:butt;stroke-linejoin:miter;stroke-miterlimit:4;stroke-opacity:1;stroke-dasharray:none;stroke-dashoffset:0;marker:none;visibility:visible;display:inline;overflow:visible;enable-background:accumulate" />
  <path
     d="m 210.11173,354.34677 a 10.101524,10.101524 0 1 1 -20.20305,0 10.101524,10.101524 0 1 1 20.20305,0 z"
     transform="matrix(0,1.2274853,1.2274853,0,-244.99976,-189.63464)"
     id="path3707-1-88-4-0-4-7"
     style="color:#000000;fill:#0000ff;fill-opacity:1;fill-rule:nonzero;stroke:#000000;stroke-width:1.22201061;stroke-linecap:butt;stroke-linejoin:miter;stroke-miterlimit:4;stroke-opacity:1;stroke-dasharray:none;stroke-dashoffset:0;marker:none;visibility:visible;display:inline;overflow:visible;enable-background:accumulate" />
  <path
     d="m 210.11173,354.34677 a 10.101524,10.101524 0 1 1 -20.20305,0 10.101524,10.101524 0 1 1 20.20305,0 z"
     transform="matrix(0,1.2274853,1.2274853,0,-244.99976,-121.63464)"
     id="path3707-4-97-3-9-0-2"
     style="color:#000000;fill:#0000ff;fill-opacity:1;fill-rule:nonzero;stroke:#000000;stroke-width:1.22201061;stroke-linecap:butt;stroke-linejoin:miter;stroke-miterlimit:4;stroke-opacity:1;stroke-dasharray:none;stroke-dashoffset:0;marker:none;visibility:visible;display:inline;overflow:visible;enable-background:accumulate" />
  <path
     d="m 210.11173,354.34677 a 10.101524,10.101524 0 1 1 -20.20305,0 10.101524,10.101524 0 1 1 20.20305,0 z"
     transform="matrix(0,1.2274853,1.2274853,0,-244.99976,-89.634644)"
     id="path3707-4-4-7-0-2-5-40"
     style="color:#000000;fill:#0000ff;fill-opacity:1;fill-rule:nonzero;stroke:#000000;stroke-width:1.22201061;stroke-linecap:butt;stroke-linejoin:miter;stroke-miterlimit:4;stroke-opacity:1;stroke-dasharray:none;stroke-dashoffset:0;marker:none;visibility:visible;display:inline;overflow:visible;enable-background:accumulate" />
  <path
     d="m 255,17.255746 0,46.428571"
     id="path4560"
     style="fill:none;stroke:#000000;stroke-width:1.29999995;stroke-linecap:butt;stroke-linejoin:miter;stroke-miterlimit:4;stroke-opacity:1;stroke-dasharray:none;marker-end:url(#Arrow1Lend)" />
  <path
     d="m 352.49999,254.3986 -46.42857,0"
     id="path4560-6"
     style="fill:none;stroke:#000000;stroke-width:1.29999995;stroke-linecap:butt;stroke-linejoin:miter;stroke-miterlimit:4;stroke-opacity:1;stroke-dasharray:none;marker-end:url(#Arrow1Lend)" />
  <path
     d="m 125.71428,361.8986 0,-46.42858"
     id="path4560-5"
     style="fill:none;stroke:#000000;stroke-width:1.29999995;stroke-linecap:butt;stroke-linejoin:miter;stroke-miterlimit:4;stroke-opacity:1;stroke-dasharray:none;marker-end:url(#Arrow1Lend)" />
  <path
     d="m 20.357143,133.68431 46.42857,0"
     id="path4560-7"
     style="fill:none;stroke:#000000;stroke-width:1.29999995;stroke-linecap:butt;stroke-linejoin:miter;stroke-miterlimit:4;stroke-opacity:1;stroke-dasharray:none;marker-end:url(#Arrow1Lend)" />
  <path
     style="fill:#550000;fill-opacity:1;fill-rule:evenodd;stroke:none;stroke-width:1px;stroke-linecap:butt;stroke-linejoin:miter;stroke-opacity:1;marker-end:"
     d="M 90.816406 159.48242 A 6.6950068 6.6950068 0 0 0 84.142578 166.19141 A 6.6950068 6.6950068 0 0 0 87.599609 172.03516 L 81.335938 193.38086 C 81.335938 193.38086 81.940754 196.63672 90.927734 196.63672 C 99.914714 196.63672 100.51758 193.38086 100.51758 193.38086 L 94.425781 171.82812 A 6.6950068 6.6950068 0 0 0 97.533203 166.17578 L 97.533203 166.14648 A 6.6950068 6.6950068 0 0 0 90.816406 159.48242 z "
     id="path3423" />
  <path
     id="path4275"
     d="m 122.81641,157.48242 a 6.6950068,6.6950068 0 0 0 -6.67383,6.70899 6.6950068,6.6950068 0 0 0 3.45703,5.84375 l -6.26367,21.3457 c 0,0 0.60481,3.25586 9.59179,3.25586 8.98698,0 9.58985,-3.25586 9.58985,-3.25586 l -6.0918,-21.55274 a 6.6950068,6.6950068 0 0 0 3.10742,-5.65234 l 0,-0.0293 a 6.6950068,6.6950068 0 0 0 -6.71679,-6.66406 z"
     style="fill:#550000;fill-opacity:1;fill-rule:evenodd;stroke:none;stroke-width:1px;stroke-linecap:butt;stroke-linejoin:miter;stroke-opacity:1"
     inkscape:connector-curvature="0" />
  <path
     inkscape:connector-curvature="0"
     style="fill:#550000;fill-opacity:1;fill-rule:evenodd;stroke:none;stroke-width:1px;stroke-linecap:butt;stroke-linejoin:miter;stroke-opacity:1"
     d="m 154.81641,161.48242 a 6.6950068,6.6950068 0 0 0 -6.67383,6.70899 6.6950068,6.6950068 0 0 0 3.45703,5.84375 l -6.26367,21.3457 c 0,0 0.60481,3.25586 9.59179,3.25586 8.98698,0 9.58985,-3.25586 9.58985,-3.25586 l -6.0918,-21.55274 a 6.6950068,6.6950068 0 0 0 3.10742,-5.65234 l 0,-0.0293 a 6.6950068,6.6950068 0 0 0 -6.71679,-6.66406 z"
     id="path4277" />
  <path
     id="path4279"
     d="m 24.816406,159.48242 a 6.6950068,6.6950068 0 0 0 -6.673828,6.70899 6.6950068,6.6950068 0 0 0 3.457031,5.84375 l -6.263671,21.3457 c 0,0 0.604816,3.25586 9.591796,3.25586 8.98698,0 9.589846,-3.25586 9.589846,-3.25586 l -6.091799,-21.55274 a 6.6950068,6.6950068 0 0 0 3.107422,-5.65234 l 0,-0.0293 a 6.6950068,6.6950068 0 0 0 -6.716797,-6.66406 z"
     style="fill:#550000;fill-opacity:1;fill-rule:evenodd;stroke:none;stroke-width:1px;stroke-linecap:butt;stroke-linejoin:miter;stroke-opacity:1"
     inkscape:connector-curvature="0" />
  <path
     id="path4281"
     d="m 116.81641,191.48242 a 6.6950068,6.6950068 0 0 0 -6.67383,6.70899 6.6950068,6.6950068 0 0 0 3.45703,5.84375 l -6.26367,21.3457 c 0,0 0.60481,3.25586 9.59179,3.25586 8.98698,0 9.58985,-3.25586 9.58985,-3.25586 l -6.0918,-21.55274 a 6.6950068,6.6950068 0 0 0 3.10742,-5.65234 l 0,-0.0293 a 6.6950068,6.6950068 0 0 0 -6.71679,-6.66406 z"
     style="fill:#005000;fill-opacity:1;fill-rule:evenodd;stroke:none;stroke-width:1px;stroke-linecap:butt;stroke-linejoin:miter;stroke-opacity:1"
     inkscape:connector-curvature="0" />
  <path
     inkscape:connector-curvature="0"
     style="fill:#005000;fill-opacity:1;fill-rule:evenodd;stroke:none;stroke-width:1px;stroke-linecap:butt;stroke-linejoin:miter;stroke-opacity:1"
     d="m 224.81641,161.48242 a 6.6950068,6.6950068 0 0 0 -6.67383,6.70899 6.6950068,6.6950068 0 0 0 3.45703,5.84375 l -6.26367,21.3457 c 0,0 0.60481,3.25586 9.59179,3.25586 8.98698,0 9.58985,-3.25586 9.58985,-3.25586 l -6.0918,-21.55274 a 6.6950068,6.6950068 0 0 0 3.10742,-5.65234 l 0,-0.0293 a 6.6950068,6.6950068 0 0 0 -6.71679,-6.66406 z"
     id="path4283" />
  <path
     id="path4285"
     d="m 258.81641,159.48242 a 6.6950068,6.6950068 0 0 0 -6.67383,6.70899 6.6950068,6.6950068 0 0 0 3.45703,5.84375 l -6.26367,21.3457 c 0,0 0.60481,3.25586 9.59179,3.25586 8.98698,0 9.58985,-3.25586 9.58985,-3.25586 l -6.0918,-21.55274 a 6.6950068,6.6950068 0 0 0 3.10742,-5.65234 l 0,-0.0293 a 6.6950068,6.6950068 0 0 0 -6.71679,-6.66406 z"
     style="fill:#005000;fill-opacity:1;fill-rule:evenodd;stroke:none;stroke-width:1px;stroke-linecap:butt;stroke-linejoin:miter;stroke-opacity:1"
     inkscape:connector-curvature="0" />
  <path
     inkscape:connector-curvature="0"
     style="fill:#005000;fill-opacity:1;fill-rule:evenodd;stroke:none;stroke-width:1px;stroke-linecap:butt;stroke-linejoin:miter;stroke-opacity:1"
     d="m 292.81641,159.48242 a 6.6950068,6.6950068 0 0 0 -6.67383,6.70899 6.6950068,6.6950068 0 0 0 3.45703,5.84375 l -6.26367,21.3457 c 0,0 0.60481,3.25586 9.59179,3.25586 8.98698,0 9.58985,-3.25586 9.58985,-3.25586 l -6.0918,-21.55274 a 6.6950068,6.6950068 0 0 0 3.10742,-5.65234 l 0,-0.0293 a 6.6950068,6.6950068 0 0 0 -6.71679,-6.66406 z"
     id="path4287" />
</svg>
